# xmcd
# Track frame offsets:
# 150
# 26945
# 41942
# 64878
# 84397
# 99168
# 119772
#
# Disc length: 1888 seconds
# Revision: 0
# Processed by: cddbd v1.5.2PL0 Copyright (c) Steve Scherf et al.
# Submitted via: VisiTrax 2.10.3.257 - For more info visit www.synapsa.com
#
DISCID=5f075e07
DTITLE=Blister Rust - Birth Is Painful
DYEAR=1997
DGENRE=Metal
TTITLE0=Heavy Drugs
TTITLE1=Mid-November Wet Dream
TTITLE2=Cleansing
TTITLE3=Untrue
TTITLE4=Everybody's Got Something To Hide Except Me And My Monkey
TTITLE5=Lounge Song
TTITLE6=Heavy Drugs '97
EXTD=
EXTT0=
EXTT1=
EXTT2=
EXTT3=
EXTT4=
EXTT5=
EXTT6=
PLAYORDER=
